<svg width="121" height="110" viewBox="0 0 121 110" fill="none" xmlns="http://www.w3.org/2000/svg">
<g id="JoinForFree" clip-path="url(#clip0_6_355)">
<path id="Vector" d="M21.6247 89.2276C43.2067 116.554 78.63 114.479 100.703 97.0574C122.775 79.6357 128.531 58.7564 106.96 31.4304C85.3779 4.10448 35.4104 -6.88167 13.3377 10.5512C-8.74611 27.9729 0.0539649 61.9017 21.6247 89.2276Z" fill="#AFC272"/>
<path id="Vector_2" d="M62.4462 45.2607C74.6366 45.2607 84.5189 35.3784 84.5189 23.188C84.5189 10.9976 74.6366 1.11534 62.4462 1.11534C50.2558 1.11534 40.3735 10.9976 40.3735 23.188C40.3735 35.3784 50.2558 45.2607 62.4462 45.2607Z" fill="#F1C24B" stroke="#2D2D2D" stroke-width="1.5" stroke-linecap="round" stroke-linejoin="round"/>
<path id="Vector_3" d="M60.5057 45.2496C78.4293 45.2496 93.1184 61.3886 94.5461 81.9221C94.6687 83.6732 93.6203 85.1901 92.3042 85.1901H28.7072C27.3911 85.1901 26.3538 83.6732 26.4654 81.9221C27.8819 61.3998 42.5821 45.2496 60.5057 45.2496Z" fill="#F1C24B" stroke="#2D2D2D" stroke-width="1.5" stroke-linecap="round" stroke-linejoin="round"/>
<path id="Vector_4" d="M77.983 65.4261C77.983 65.4261 79.4776 95.4624 81.2845 96.1762C83.3144 96.9904 90.1403 87.4654 91.6237 89.4507C93.1071 91.436 97.747 101.273 99.7657 100.481C101.785 99.6896 105.097 97.5704 106.246 95.3286C107.205 93.4436 96.0293 86.0154 97.7581 83.9966C100.256 81.0744 109.09 78.7545 105.487 76.8807C101.885 75.007 78.0053 65.4373 78.0053 65.4373L77.983 65.4261Z" fill="white" stroke="#2D2D2D" stroke-width="1.5" stroke-linecap="round" stroke-linejoin="round"/>
</g>
<defs>
<clipPath id="clip0_6_355">
<rect width="120" height="109.995" fill="white" transform="translate(0.5)"/>
</clipPath>
</defs>
</svg>
